<?xml version="1.0" encoding="utf-8"?>
<!-- Generator: Adobe Illustrator 24.1.1, SVG Export Plug-In . SVG Version: 6.00 Build 0)  -->
<svg version="1.1" id="white_-_lg_-_Text_als_Pfad" xmlns="http://www.w3.org/2000/svg" xmlns:xlink="http://www.w3.org/1999/xlink"
	 x="0px" y="0px" viewBox="0 0 315.65 55.73" style="enable-background:new 0 0 315.65 55.73;" xml:space="preserve">
<style type="text/css">
	.st0{fill:#FFFFFF;}
</style>
<g style="display:none;">
</g>
<g>
	<path class="st0" d="M9.79,30.7H6.07c-0.1,0.9-0.18,1.79-0.24,2.68c-0.06,0.89-0.13,1.78-0.2,2.68h3.72l0.29,0.29v0.99L9.35,37.6
		H5.45c-0.1,1.02-0.18,2.04-0.26,3.05c-0.07,1.01-0.16,2.03-0.26,3.05l-0.29,0.22H3.69c-0.07,0-0.13-0.04-0.18-0.11
		c-0.05-0.07-0.09-0.13-0.11-0.18l0.55-6.02h-5.11l-0.58,6.1l-0.29,0.22h-0.91c-0.07,0-0.13-0.04-0.18-0.11
		c-0.05-0.07-0.09-0.13-0.11-0.18l0.51-6.02h-3.5l-0.29-0.25v-0.99l0.29-0.29h3.69c0.1-0.9,0.18-1.79,0.24-2.68
		c0.06-0.89,0.13-1.78,0.2-2.68h-3.69l-0.29-0.29v-0.99l0.29-0.25h3.87l0.51-5.91L-1.12,23h0.95c0.19,0,0.29,0.11,0.29,0.33
		l-0.51,5.84h5.15l0.51-5.91L5.56,23h0.95c0.19,0,0.29,0.11,0.29,0.33l-0.58,5.84h3.58l0.29,0.25v0.99L9.79,30.7z M-0.58,30.7
		c-0.07,0.9-0.14,1.79-0.2,2.68c-0.06,0.89-0.14,1.78-0.24,2.68h5.15c0.07-0.9,0.14-1.79,0.2-2.68c0.06-0.89,0.14-1.78,0.24-2.68
		H-0.58z"/>
	<path class="st0" d="M23.08,47.2c-0.41,0.27-0.88,0.46-1.41,0.58c-0.52,0.12-1.03,0.18-1.51,0.18c-1.34,0-2.39-0.29-3.16-0.88
		s-1.34-1.33-1.72-2.24c-0.38-0.91-0.61-1.92-0.69-3.03c-0.09-1.11-0.13-2.17-0.13-3.19V20.78c0.05-0.12,0.11-0.22,0.18-0.31
		c0.07-0.08,0.15-0.16,0.22-0.24l0.29-0.15h0.91c0.12,0.05,0.26,0.15,0.4,0.29s0.24,0.28,0.29,0.4c0,2.99-0.01,5.97-0.02,8.92
		c-0.01,2.96-0.02,5.93-0.02,8.92c0,0.61,0.02,1.33,0.05,2.15c0.04,0.83,0.16,1.62,0.37,2.37c0.21,0.75,0.54,1.39,1,1.92
		s1.13,0.78,2.01,0.78c0.36,0,0.68-0.05,0.93-0.15c0.26-0.1,0.47-0.21,0.66-0.33c0.18-0.12,0.34-0.23,0.47-0.33
		c0.13-0.1,0.29-0.15,0.46-0.15c0.17,0,0.3,0.07,0.4,0.22c0.1,0.15,0.16,0.32,0.2,0.51c0.04,0.2,0.05,0.4,0.05,0.62
		c0,0.19,0,0.35,0,0.47L23.08,47.2z"/>
	<path class="st0" d="M40.5,42.51c-0.33,1.11-0.83,2.06-1.51,2.87c-0.68,0.8-1.53,1.44-2.56,1.9c-1.02,0.46-2.23,0.69-3.61,0.69
		c-1.39,0-2.6-0.22-3.63-0.67s-1.9-1.08-2.59-1.9c-0.69-0.81-1.21-1.78-1.55-2.88c-0.34-1.11-0.51-2.32-0.51-3.63
		c0-1.39,0.16-2.63,0.47-3.72c0.32-1.09,0.81-2.03,1.48-2.81c0.67-0.78,1.53-1.37,2.57-1.79c1.05-0.41,2.29-0.62,3.72-0.62
		c1.46,0,2.71,0.21,3.74,0.62c1.03,0.41,1.88,1.01,2.54,1.79c0.66,0.78,1.14,1.72,1.46,2.81c0.32,1.1,0.47,2.34,0.47,3.72
		C41,40.19,40.83,41.4,40.5,42.51z M38.37,35.83c-0.19-0.79-0.52-1.47-0.99-2.03c-0.46-0.56-1.06-0.99-1.81-1.29
		c-0.74-0.3-1.66-0.46-2.76-0.46c-1.07,0-1.98,0.17-2.74,0.51c-0.75,0.34-1.37,0.82-1.84,1.42c-0.47,0.61-0.83,1.33-1.06,2.17
		c-0.23,0.84-0.35,1.75-0.35,2.72c0,0.92,0.12,1.81,0.35,2.66c0.23,0.85,0.6,1.59,1.1,2.23c0.5,0.63,1.12,1.14,1.86,1.51
		c0.74,0.38,1.62,0.57,2.65,0.57c1.1,0,2.02-0.2,2.77-0.6s1.36-0.94,1.81-1.61c0.45-0.67,0.78-1.45,0.99-2.34
		c0.21-0.89,0.31-1.82,0.31-2.79C38.66,37.52,38.56,36.62,38.37,35.83z"/>
	<path class="st0" d="M58.44,46.11l-0.18,0.4c-0.85,0.49-1.81,0.85-2.87,1.09c-1.06,0.24-2.07,0.37-3.05,0.37
		c-1.48,0-2.74-0.24-3.76-0.71c-1.02-0.47-1.85-1.13-2.48-1.97c-0.63-0.84-1.09-1.83-1.37-2.97s-0.42-2.38-0.42-3.72
		c0-1.29,0.16-2.46,0.49-3.52s0.83-1.97,1.5-2.74c0.67-0.77,1.5-1.36,2.5-1.77c1-0.41,2.18-0.62,3.54-0.62
		c0.9,0,1.81,0.07,2.72,0.22c0.91,0.15,1.78,0.39,2.61,0.73l0.29,0.44v1.2c0,0.2-0.06,0.36-0.18,0.49c-0.12,0.13-0.28,0.2-0.47,0.2
		c-0.24,0-0.55-0.06-0.93-0.18c-0.38-0.12-0.79-0.25-1.24-0.4c-0.45-0.15-0.91-0.28-1.39-0.4c-0.47-0.12-0.94-0.18-1.41-0.18
		c-1,0-1.86,0.17-2.57,0.51c-0.72,0.34-1.31,0.8-1.79,1.39c-0.47,0.58-0.82,1.27-1.04,2.06c-0.22,0.79-0.33,1.65-0.33,2.57
		s0.1,1.82,0.29,2.7c0.19,0.88,0.52,1.65,0.99,2.32c0.46,0.67,1.05,1.21,1.77,1.62c0.72,0.41,1.61,0.62,2.68,0.62
		c0.56,0,1.14-0.08,1.73-0.25c0.6-0.17,1.16-0.35,1.7-0.55c0.53-0.19,0.99-0.38,1.37-0.55c0.38-0.17,0.63-0.26,0.75-0.26
		c0.24,0.12,0.4,0.29,0.46,0.51c0.06,0.22,0.09,0.45,0.09,0.69V46.11z"/>
	<path class="st0" d="M74.61,47.48c-0.15,0.13-0.29,0.22-0.44,0.27h-0.77l-0.29-0.15c-0.07-0.07-0.15-0.15-0.22-0.24
		c-0.07-0.08-0.13-0.19-0.18-0.31l-0.04-1.79c-0.66,0.88-1.45,1.55-2.37,2.01c-0.93,0.46-1.93,0.69-3.03,0.69
		c-0.8,0-1.54-0.13-2.21-0.4c-0.67-0.27-1.25-0.64-1.75-1.11c-0.5-0.47-0.88-1.05-1.15-1.73c-0.27-0.68-0.4-1.42-0.4-2.23
		c0-1,0.17-1.83,0.51-2.48c0.34-0.66,0.8-1.2,1.37-1.62c0.57-0.43,1.23-0.75,1.97-0.97c0.74-0.22,1.51-0.37,2.32-0.46
		c0.8-0.08,1.61-0.13,2.41-0.15c0.8-0.01,1.56-0.02,2.26-0.02v-1.46c0-1.26-0.33-2.12-1-2.55c-0.67-0.44-1.59-0.66-2.76-0.66
		c-0.58,0-1.17,0.09-1.77,0.27c-0.6,0.18-1.14,0.39-1.64,0.62c-0.5,0.23-0.93,0.44-1.28,0.62c-0.35,0.18-0.57,0.27-0.64,0.27
		c-0.34,0-0.54-0.16-0.6-0.49c-0.06-0.33-0.09-0.61-0.09-0.86v-0.55l0.22-0.44c0.85-0.32,1.58-0.58,2.19-0.78
		c0.61-0.21,1.24-0.39,1.9-0.55c0.66-0.16,1.22-0.24,1.68-0.24c0.97,0,1.84,0.08,2.59,0.24c0.75,0.16,1.39,0.44,1.92,0.84
		c0.52,0.4,0.92,0.95,1.19,1.64c0.27,0.69,0.4,1.56,0.4,2.61v11.72C74.86,47.2,74.76,47.34,74.61,47.48z M71.38,38.68
		c-0.45-0.06-0.89-0.03-1.33,0.09c-0.2,0.05-0.43,0.07-0.71,0.05c-0.28-0.01-0.54-0.01-0.78,0.02c-0.56,0.05-1.1,0.15-1.61,0.29
		c-0.51,0.15-0.97,0.36-1.39,0.64c-0.41,0.28-0.74,0.64-0.99,1.08c-0.24,0.44-0.37,0.99-0.37,1.64c0,0.44,0.07,0.86,0.22,1.26
		s0.35,0.75,0.62,1.06c0.27,0.3,0.58,0.55,0.95,0.75c0.37,0.2,0.78,0.29,1.24,0.29c1.02,0,1.87-0.2,2.55-0.6s1.22-0.93,1.62-1.59
		c0.4-0.66,0.69-1.39,0.86-2.21c0.17-0.82,0.26-1.65,0.26-2.5l0.18-0.36C72.28,38.71,71.83,38.74,71.38,38.68z"/>
	<path class="st0" d="M87.68,47.2c-0.41,0.27-0.88,0.46-1.41,0.58c-0.52,0.12-1.03,0.18-1.51,0.18c-1.34,0-2.39-0.29-3.16-0.88
		s-1.34-1.33-1.72-2.24c-0.38-0.91-0.61-1.92-0.69-3.03c-0.09-1.11-0.13-2.17-0.13-3.19V20.78c0.05-0.12,0.11-0.22,0.18-0.31
		c0.07-0.08,0.15-0.16,0.22-0.24l0.29-0.15h0.91c0.12,0.05,0.26,0.15,0.4,0.29s0.24,0.28,0.29,0.4c0,2.99-0.01,5.97-0.02,8.92
		c-0.01,2.96-0.02,5.93-0.02,8.92c0,0.61,0.02,1.33,0.05,2.15c0.04,0.83,0.16,1.62,0.37,2.37c0.21,0.75,0.54,1.39,1,1.92
		s1.13,0.78,2.01,0.78c0.36,0,0.68-0.05,0.93-0.15c0.26-0.1,0.47-0.21,0.66-0.33c0.18-0.12,0.34-0.23,0.47-0.33
		c0.13-0.1,0.29-0.15,0.46-0.15c0.17,0,0.3,0.07,0.4,0.22c0.1,0.15,0.16,0.32,0.2,0.51c0.04,0.2,0.05,0.4,0.05,0.62
		c0,0.19,0,0.35,0,0.47L87.68,47.2z"/>
	<path class="st0" d="M101.91,50.27c-0.29,1.05-0.74,1.98-1.33,2.79c-0.6,0.82-1.34,1.47-2.24,1.95c-0.9,0.49-1.96,0.73-3.18,0.73
		c-0.27,0-0.68-0.02-1.22-0.07c-0.55-0.05-1.1-0.14-1.66-0.27c-0.56-0.13-1.06-0.3-1.51-0.51c-0.45-0.21-0.71-0.47-0.78-0.79v-1.39
		c0-0.22,0.09-0.39,0.27-0.51c0.18-0.12,0.37-0.18,0.57-0.18c0.05,0.05,0.1,0.08,0.15,0.09c0.05,0.01,0.1,0.04,0.15,0.09
		c0.61,0.49,1.24,0.84,1.9,1.06c0.66,0.22,1.37,0.33,2.15,0.33c0.83,0,1.55-0.19,2.17-0.57c0.62-0.38,1.13-0.86,1.53-1.44
		s0.7-1.25,0.89-1.99c0.19-0.74,0.29-1.48,0.29-2.21v-3.47c-0.61,0.75-1.34,1.37-2.19,1.84c-0.85,0.47-1.78,0.71-2.77,0.71
		c-1.17,0-2.15-0.2-2.94-0.6c-0.79-0.4-1.42-0.95-1.9-1.64c-0.47-0.69-0.82-1.5-1.02-2.43c-0.21-0.92-0.31-1.9-0.31-2.92
		c0-1.27,0.21-2.44,0.64-3.52s1.02-2.02,1.77-2.81c0.75-0.79,1.66-1.41,2.72-1.86c1.06-0.45,2.23-0.68,3.52-0.68
		c0.71,0,1.41,0.03,2.1,0.09c0.69,0.06,1.39,0.16,2.1,0.31c0.1,0.07,0.21,0.18,0.33,0.33c0.12,0.15,0.21,0.28,0.26,0.4v15.91
		C102.35,48.15,102.21,49.22,101.91,50.27z M97.57,32.13c-0.95,0-1.82,0.18-2.61,0.53c-0.79,0.35-1.46,0.83-2.01,1.44
		c-0.55,0.61-0.97,1.33-1.28,2.15c-0.3,0.83-0.46,1.7-0.46,2.63c0,0.63,0.06,1.27,0.16,1.92s0.31,1.24,0.6,1.77s0.69,0.97,1.19,1.29
		c0.5,0.33,1.14,0.49,1.92,0.49c0.95,0,1.74-0.21,2.37-0.62c0.63-0.41,1.13-0.96,1.5-1.64c0.36-0.68,0.63-1.45,0.8-2.3
		c0.17-0.85,0.28-1.72,0.33-2.61c0.05-0.89,0.06-1.75,0.04-2.57c-0.02-0.83-0.04-1.56-0.04-2.19
		C99.19,32.22,98.35,32.13,97.57,32.13z"/>
	<path class="st0" d="M119.76,47.37c-0.07,0.08-0.15,0.16-0.22,0.24l-0.29,0.15h-0.8c-0.15-0.05-0.29-0.14-0.44-0.27
		s-0.24-0.27-0.29-0.42l-0.04-1.83c-0.68,0.9-1.51,1.58-2.5,2.04c-0.99,0.46-2.04,0.69-3.16,0.69c-1.14,0-2.12-0.18-2.92-0.55
		c-0.8-0.37-1.47-0.88-1.99-1.53c-0.52-0.66-0.91-1.44-1.15-2.34s-0.36-1.87-0.36-2.92c0-3.31,0.04-6.61,0.11-9.89l0.4-0.44
		l0.29-0.11h1.02c0.17,0,0.3,0.06,0.4,0.18c0.1,0.12,0.15,0.26,0.15,0.4c-0.02,1.66-0.04,3.3-0.05,4.93
		c-0.01,1.63-0.02,3.27-0.02,4.93c0,0.66,0.07,1.3,0.22,1.93s0.38,1.19,0.69,1.68c0.32,0.49,0.74,0.88,1.26,1.17
		c0.52,0.29,1.17,0.44,1.95,0.44c0.75,0,1.47-0.15,2.15-0.44s1.28-0.69,1.79-1.2c0.51-0.51,0.91-1.11,1.2-1.79
		c0.29-0.68,0.44-1.4,0.44-2.15c0-0.78,0.01-1.56,0.02-2.35c0.01-0.79,0.02-1.58,0.02-2.35v-4.67c0.07-0.24,0.21-0.44,0.4-0.58
		l0.29-0.11h0.91l0.29,0.11c0.19,0.15,0.33,0.34,0.4,0.58v16.17C119.89,47.18,119.83,47.28,119.76,47.37z"/>
	<path class="st0" d="M135.24,46.47l-0.22,0.4c-0.56,0.37-1.22,0.64-1.97,0.82s-1.47,0.27-2.15,0.27c-0.95,0-1.73-0.14-2.34-0.42
		c-0.61-0.28-1.09-0.67-1.44-1.17c-0.35-0.5-0.6-1.09-0.73-1.79s-0.2-1.47-0.2-2.32v-9.38h-2.15l-0.44-0.37l-0.15-0.33v-0.8
		l0.11-0.26c0.17-0.22,0.36-0.37,0.58-0.44h2.04c0.05-0.78,0.07-1.56,0.07-2.34c0-0.8,0.01-1.59,0.04-2.37
		c0.07-0.1,0.18-0.2,0.31-0.31s0.26-0.19,0.38-0.24h0.84l0.44,0.37l0.18,0.33v4.56h5.69c0.12,0.07,0.24,0.18,0.35,0.31
		c0.11,0.13,0.19,0.26,0.24,0.38v0.8c-0.05,0.12-0.15,0.25-0.29,0.4c-0.15,0.15-0.28,0.24-0.4,0.29h-5.58v9.38
		c0,0.41,0.03,0.83,0.09,1.24c0.06,0.41,0.18,0.8,0.37,1.15s0.43,0.64,0.75,0.86s0.72,0.33,1.21,0.33c0.39,0,0.78-0.07,1.19-0.2
		s0.77-0.27,1.11-0.42c0.34-0.15,0.64-0.29,0.89-0.42c0.26-0.13,0.43-0.2,0.53-0.2c0.29,0,0.48,0.11,0.57,0.33s0.12,0.44,0.09,0.66
		V46.47z"/>
	<path class="st0" d="M148.8,45.47c-0.35,0.6-0.82,1.08-1.41,1.44c-0.58,0.37-1.24,0.63-1.97,0.8c-0.73,0.17-1.46,0.25-2.19,0.25
		c-0.78,0-1.58-0.07-2.41-0.22s-1.61-0.37-2.34-0.66l-0.29-0.44v-1.28c0-0.2,0.07-0.36,0.22-0.49c0.15-0.13,0.32-0.2,0.51-0.2
		c0.17,0,0.4,0.06,0.69,0.18c0.29,0.12,0.63,0.26,1.02,0.4c0.39,0.15,0.81,0.28,1.26,0.4c0.45,0.12,0.92,0.18,1.4,0.18
		c0.41,0,0.84-0.04,1.28-0.13c0.44-0.08,0.84-0.23,1.2-0.44c0.37-0.21,0.66-0.48,0.89-0.82c0.23-0.34,0.35-0.75,0.35-1.24
		c0-0.66-0.22-1.19-0.66-1.61c-0.44-0.41-0.98-0.79-1.62-1.11c-0.65-0.33-1.35-0.64-2.12-0.95c-0.77-0.3-1.47-0.68-2.12-1.13
		c-0.64-0.45-1.19-1.01-1.62-1.68c-0.44-0.67-0.66-1.51-0.66-2.54c0-0.78,0.15-1.44,0.46-1.97c0.3-0.54,0.71-0.97,1.22-1.31
		c0.51-0.34,1.09-0.59,1.75-0.75c0.66-0.16,1.33-0.24,2.01-0.24c1.58,0,3.14,0.22,4.67,0.66c0.07,0.1,0.15,0.2,0.22,0.29
		c0.07,0.1,0.13,0.21,0.18,0.33v1.02c0,0.15-0.05,0.3-0.16,0.46c-0.11,0.16-0.25,0.24-0.42,0.24c-0.36,0-0.73-0.04-1.09-0.13
		s-0.74-0.18-1.11-0.29c-0.38-0.11-0.75-0.21-1.13-0.31c-0.38-0.1-0.76-0.15-1.15-0.15c-0.34,0-0.7,0.03-1.08,0.09
		c-0.38,0.06-0.72,0.18-1.02,0.35c-0.3,0.17-0.55,0.39-0.75,0.66c-0.2,0.27-0.29,0.62-0.29,1.06c0,0.68,0.22,1.23,0.66,1.66
		c0.44,0.43,0.98,0.8,1.62,1.13c0.64,0.33,1.35,0.64,2.12,0.95c0.77,0.3,1.47,0.68,2.12,1.13c0.64,0.45,1.19,1.01,1.63,1.68
		c0.44,0.67,0.66,1.52,0.66,2.54C149.32,44.15,149.15,44.87,148.8,45.47z"/>
	<path class="st0" d="M166.66,46.11l-0.18,0.4c-0.85,0.49-1.81,0.85-2.87,1.09c-1.06,0.24-2.07,0.37-3.05,0.37
		c-1.48,0-2.74-0.24-3.76-0.71c-1.02-0.47-1.85-1.13-2.48-1.97c-0.63-0.84-1.09-1.83-1.37-2.97c-0.28-1.14-0.42-2.38-0.42-3.72
		c0-1.29,0.16-2.46,0.49-3.52c0.33-1.06,0.83-1.97,1.5-2.74c0.67-0.77,1.5-1.36,2.5-1.77c1-0.41,2.18-0.62,3.54-0.62
		c0.9,0,1.81,0.07,2.72,0.22c0.91,0.15,1.78,0.39,2.61,0.73l0.29,0.44v1.2c0,0.2-0.06,0.36-0.18,0.49c-0.12,0.13-0.28,0.2-0.47,0.2
		c-0.24,0-0.55-0.06-0.93-0.18c-0.38-0.12-0.79-0.25-1.24-0.4c-0.45-0.15-0.91-0.28-1.39-0.4c-0.47-0.12-0.94-0.18-1.41-0.18
		c-1,0-1.86,0.17-2.57,0.51c-0.72,0.34-1.31,0.8-1.79,1.39s-0.82,1.27-1.04,2.06s-0.33,1.65-0.33,2.57s0.1,1.82,0.29,2.7
		c0.19,0.88,0.52,1.65,0.98,2.32s1.05,1.21,1.77,1.62c0.72,0.41,1.61,0.62,2.68,0.62c0.56,0,1.14-0.08,1.73-0.25
		c0.6-0.17,1.16-0.35,1.7-0.55c0.54-0.19,0.99-0.38,1.37-0.55s0.63-0.26,0.75-0.26c0.24,0.12,0.39,0.29,0.46,0.51
		s0.09,0.45,0.09,0.69V46.11z"/>
	<path class="st0" d="M184.47,47.37c-0.07,0.08-0.15,0.16-0.22,0.24l-0.29,0.15h-0.91c-0.15-0.05-0.29-0.14-0.44-0.27
		c-0.15-0.13-0.24-0.27-0.29-0.42V36.29c0-1.41-0.45-2.46-1.35-3.14c-0.9-0.68-2.01-1.02-3.32-1.02c-0.56,0-1.14,0.1-1.75,0.29
		c-0.61,0.2-1.18,0.47-1.71,0.82c-0.54,0.35-0.97,0.78-1.31,1.28c-0.34,0.5-0.51,1.07-0.51,1.7v10.84
		c-0.05,0.15-0.15,0.29-0.29,0.42c-0.15,0.13-0.29,0.22-0.44,0.27h-0.91l-0.29-0.15c-0.07-0.07-0.15-0.15-0.22-0.24
		s-0.13-0.19-0.18-0.31V20.78c0.05-0.12,0.11-0.22,0.18-0.31c0.07-0.08,0.15-0.16,0.22-0.24l0.29-0.15h0.91
		c0.15,0.05,0.29,0.14,0.44,0.27c0.15,0.13,0.24,0.27,0.29,0.42v11.28c0.68-0.71,1.49-1.22,2.43-1.55c0.94-0.33,1.89-0.49,2.87-0.49
		c1.05,0,2,0.12,2.85,0.35c0.85,0.23,1.59,0.6,2.21,1.11c0.62,0.51,1.1,1.16,1.44,1.95s0.51,1.75,0.51,2.87v10.77
		C184.61,47.18,184.55,47.28,184.47,47.37z"/>
	<path class="st0" d="M202.38,38.81c-0.11,0.12-0.21,0.23-0.31,0.33c-1.97,0.07-3.94,0.14-5.89,0.2s-3.92,0.09-5.89,0.09
		c0.02,0.9,0.16,1.74,0.4,2.52c0.24,0.78,0.59,1.46,1.04,2.04s1.03,1.04,1.73,1.37c0.71,0.33,1.56,0.49,2.55,0.49
		c0.56,0,1.13-0.08,1.72-0.25s1.13-0.35,1.62-0.55c0.5-0.19,0.92-0.38,1.28-0.55c0.35-0.17,0.57-0.26,0.64-0.26
		c0.34,0,0.54,0.16,0.6,0.47c0.06,0.32,0.09,0.6,0.09,0.84v0.55l-0.22,0.4c-0.8,0.49-1.73,0.85-2.77,1.09
		c-1.05,0.24-2.03,0.37-2.96,0.37c-1.53,0-2.82-0.24-3.85-0.71c-1.04-0.47-1.86-1.14-2.48-1.99c-0.62-0.85-1.06-1.86-1.33-3.03
		s-0.4-2.45-0.4-3.83c0-1.24,0.17-2.38,0.51-3.43c0.34-1.05,0.85-1.94,1.51-2.68c0.67-0.74,1.5-1.32,2.5-1.73
		c1-0.41,2.14-0.62,3.43-0.62c1.29,0,2.37,0.23,3.23,0.69c0.86,0.46,1.55,1.09,2.06,1.88c0.51,0.79,0.88,1.7,1.1,2.72
		c0.22,1.02,0.33,2.09,0.33,3.21C202.57,38.56,202.49,38.68,202.38,38.81z M199.88,35.18c-0.2-0.6-0.47-1.13-0.82-1.59
		c-0.35-0.46-0.79-0.83-1.31-1.11c-0.52-0.28-1.14-0.42-1.84-0.42c-1.58,0-2.88,0.47-3.91,1.42c-1.02,0.95-1.59,2.21-1.72,3.8h1.13
		c1.48,0,2.96-0.01,4.43-0.04c1.47-0.02,2.94-0.1,4.4-0.22C200.19,36.39,200.07,35.77,199.88,35.18z"/>
	<path class="st0" d="M208.09,26.87l-0.29,0.11h-1.39l-0.29-0.11l-0.29-0.26l-0.15-0.29v-1.39c0.05-0.12,0.11-0.22,0.18-0.31
		c0.07-0.08,0.15-0.16,0.22-0.24l0.29-0.15h1.39c0.15,0.05,0.29,0.14,0.44,0.27c0.15,0.13,0.24,0.27,0.29,0.42v1.39
		C208.39,26.59,208.26,26.77,208.09,26.87z M207.94,47.51c-0.12,0.11-0.24,0.19-0.37,0.24h-1.06l-0.44-0.37l-0.18-0.33V30.89
		c0.07-0.22,0.22-0.41,0.44-0.58l0.26-0.11h0.95l0.25,0.11c0.22,0.17,0.37,0.37,0.44,0.58V47.2
		C208.16,47.3,208.06,47.4,207.94,47.51z"/>
	<path class="st0" d="M226.01,47.37c-0.07,0.08-0.15,0.16-0.22,0.24l-0.29,0.15h-0.91c-0.15-0.05-0.29-0.14-0.44-0.27
		c-0.15-0.13-0.24-0.27-0.29-0.42V36.29c0-1.41-0.45-2.46-1.35-3.14c-0.9-0.68-2.01-1.02-3.32-1.02c-0.49,0-1.03,0.1-1.64,0.29
		c-0.61,0.2-1.18,0.46-1.72,0.8c-0.54,0.34-0.99,0.74-1.37,1.21s-0.57,0.97-0.57,1.53v11.1c-0.05,0.15-0.15,0.29-0.29,0.42
		c-0.15,0.13-0.29,0.22-0.44,0.27h-0.91l-0.29-0.15c-0.07-0.07-0.15-0.15-0.22-0.24s-0.13-0.19-0.18-0.31V30.89
		c0.07-0.24,0.21-0.44,0.4-0.58l0.29-0.11h0.77l0.29,0.11l0.44,0.44l0.07,1.5c0.68-0.78,1.49-1.34,2.43-1.7
		c0.94-0.35,1.92-0.53,2.94-0.53c1.02,0,1.96,0.12,2.83,0.37c0.86,0.24,1.61,0.62,2.23,1.13c0.62,0.51,1.1,1.16,1.44,1.95
		c0.34,0.79,0.51,1.73,0.51,2.83v10.77C226.14,47.18,226.08,47.28,226.01,47.37z"/>
	<path class="st0" d="M231.41,26.29h-1.46l-0.29-0.26v-1.42l0.25-0.29h1.46l0.29,0.29v1.42L231.41,26.29z M231.15,47.75h-0.95
		l-0.33-0.29V30.74l0.29-0.29h0.95l0.29,0.29v16.72L231.15,47.75z"/>
	<path class="st0" d="M249.3,47.75h-0.95l-0.29-0.29V36.32c0-0.8-0.13-1.5-0.4-2.08c-0.27-0.58-0.64-1.08-1.11-1.48
		s-1.04-0.7-1.68-0.89c-0.65-0.19-1.35-0.29-2.1-0.29c-0.54,0-1.14,0.11-1.82,0.33c-0.68,0.22-1.33,0.53-1.93,0.93
		c-0.61,0.4-1.12,0.87-1.53,1.41c-0.41,0.54-0.62,1.12-0.62,1.75v11.46l-0.29,0.29h-0.95l-0.29-0.29V30.74l0.29-0.29h0.8l0.29,0.29
		l0.11,2.63c0.66-1.02,1.51-1.79,2.55-2.32c1.05-0.52,2.18-0.78,3.39-0.78c1,0,1.92,0.12,2.76,0.35c0.84,0.23,1.56,0.59,2.15,1.08
		c0.6,0.49,1.06,1.11,1.41,1.88c0.34,0.77,0.51,1.69,0.51,2.76v11.13L249.3,47.75z"/>
	<path class="st0" d="M265.81,51.22c-0.28,0.95-0.71,1.78-1.28,2.48c-0.57,0.71-1.3,1.27-2.17,1.68c-0.88,0.41-1.91,0.62-3.1,0.62
		c-0.32,0-0.71-0.02-1.17-0.05c-0.46-0.04-0.93-0.1-1.41-0.2s-0.92-0.22-1.35-0.38s-0.76-0.36-1-0.6v-1.42c0-0.2,0.1-0.29,0.29-0.29
		l0.22,0.11c0.22,0.29,0.51,0.53,0.88,0.71c0.37,0.18,0.76,0.33,1.19,0.46c0.43,0.12,0.85,0.21,1.26,0.25
		c0.41,0.05,0.78,0.07,1.1,0.07c0.92,0,1.73-0.16,2.41-0.49c0.68-0.33,1.25-0.77,1.71-1.33s0.8-1.2,1.02-1.93
		c0.22-0.73,0.33-1.51,0.33-2.34v-4.31c-0.56,1.02-1.32,1.89-2.28,2.59s-2.05,1.06-3.27,1.06c-1.14,0-2.09-0.24-2.85-0.71
		c-0.75-0.47-1.36-1.1-1.83-1.86c-0.46-0.77-0.79-1.64-0.99-2.61c-0.2-0.97-0.29-1.96-0.29-2.96c0-1.24,0.21-2.43,0.62-3.58
		s0.99-2.15,1.73-3.03c0.74-0.88,1.64-1.58,2.68-2.1c1.05-0.52,2.2-0.78,3.47-0.78c0.68,0,1.38,0.03,2.1,0.09
		c0.72,0.06,1.42,0.18,2.1,0.35l0.29,0.29v17.19C266.23,49.26,266.09,50.27,265.81,51.22z M263.27,31.67
		c-0.51-0.06-1.02-0.09-1.53-0.09c-1.07,0-2.04,0.23-2.9,0.69c-0.86,0.46-1.6,1.08-2.21,1.84c-0.61,0.77-1.08,1.64-1.41,2.63
		c-0.33,0.99-0.49,1.99-0.49,3.01c0,0.73,0.07,1.5,0.2,2.3c0.13,0.8,0.37,1.54,0.71,2.21c0.34,0.67,0.8,1.22,1.37,1.66
		c0.57,0.44,1.3,0.66,2.17,0.66s1.66-0.25,2.35-0.75s1.28-1.13,1.75-1.88c0.47-0.75,0.83-1.58,1.08-2.48
		c0.24-0.9,0.37-1.74,0.37-2.52l0.04-6.97C264.28,31.84,263.78,31.73,263.27,31.67z"/>
</g>
</svg>
